<svg xmlns="http://www.w3.org/2000/svg" viewBox="0 0 222.89 183.03"><defs><style>.cls-1{fill:#121911;}.cls-2{fill:#00231c;}.cls-3{fill:#fff;}</style></defs><g id="Capa_1" data-name="Capa 1"><g id="Capa_5" data-name="Capa 5"><path class="cls-1" d="M43.12,167.31A12.07,12.07,0,0,1,43,165.1a11.18,11.18,0,0,1,.24-1.93,9.72,9.72,0,0,1,.44-1.53,9.88,9.88,0,0,1,.48-1.08l-1.25.17-.8-5.74,9.48-1.32.85,6.09a5.76,5.76,0,0,0-1.91.56,3.57,3.57,0,0,0-1.16.94,2.8,2.8,0,0,0-.54,1.22,4.5,4.5,0,0,0,0,1.42,3.64,3.64,0,0,0,.63,1.71,2.94,2.94,0,0,0,1.43,1,7.51,7.51,0,0,0,2.41.38,22,22,0,0,0,3.55-.26,20.13,20.13,0,0,0,3.49-.74,6.77,6.77,0,0,0,2.19-1.09,3.13,3.13,0,0,0,1.09-1.49,4.35,4.35,0,0,0,.13-2,3.84,3.84,0,0,0-.49-1.4,3.47,3.47,0,0,0-1-1.11,4.33,4.33,0,0,0-1.6-.63,6.61,6.61,0,0,0-2.18,0l-.85-6.06a12.5,12.5,0,0,1,4.28.11,9.2,9.2,0,0,1,3.75,1.7,10.66,10.66,0,0,1,2.87,3.43,15.11,15.11,0,0,1,1.63,5.29,18.76,18.76,0,0,1,0,5.45,11.9,11.9,0,0,1-1.8,4.72,11.36,11.36,0,0,1-3.79,3.54,15.7,15.7,0,0,1-6,1.95,15.57,15.57,0,0,1-6.32-.24,12,12,0,0,1-4.62-2.34,11.73,11.73,0,0,1-3-3.82A15.93,15.93,0,0,1,43.12,167.31Z" transform="translate(-42.12 -44.16)"/><path class="cls-1" d="M64.3,132.41a5,5,0,0,0,.1-1.21,1.49,1.49,0,0,0-.32-.84,2,2,0,0,0-.86-.56,8.94,8.94,0,0,0-1.48-.38l1.11-6,9.42,1.73-4.52,24.64-6.41-1.18a4.47,4.47,0,0,0,0-2.25,1.68,1.68,0,0,0-1.41-.94l-8.75-1.61a1.71,1.71,0,0,0-1.67.38,4.33,4.33,0,0,0-.8,2.1l-6.42-1.18,4.52-24.63,9.43,1.72-1.11,6.06a9.25,9.25,0,0,0-1.53-.18,1.9,1.9,0,0,0-1,.22,1.48,1.48,0,0,0-.6.68,4.58,4.58,0,0,0-.35,1.16l-.57,3.11,4.6.85,1-5.52,3.06.56-1,5.52,5,.91Z" transform="translate(-42.12 -44.16)"/><path class="cls-1" d="M62.91,101.3a4.35,4.35,0,0,0-.67,2.14,1.69,1.69,0,0,0,1.07,1.32l9.58,5.12,1.66-3.1a4.19,4.19,0,0,0,.45-1.14,1.31,1.31,0,0,0-.16-1,3.21,3.21,0,0,0-.92-.94,16,16,0,0,0-1.84-1.11L75,97.21l9.4,5-12,22.41-5.75-3.07a4.53,4.53,0,0,0,.68-2.15,1.71,1.71,0,0,0-1.06-1.32l-7.85-4.19a1.7,1.7,0,0,0-1.7-.16,4.53,4.53,0,0,0-1.41,1.76l-5.75-3.07,7.6-14.22Z" transform="translate(-42.12 -44.16)"/><path class="cls-1" d="M85.25,102l-4.77-4.45a4.33,4.33,0,0,0,1.21-1.9A1.66,1.66,0,0,0,81,94.14l-6.5-6.07a1.69,1.69,0,0,0-1.6-.59,4.41,4.41,0,0,0-1.82,1.34l-4.76-4.46,11-11.77L82.1,77a4.36,4.36,0,0,0-1.2,1.89,1.71,1.71,0,0,0,.7,1.56l6.49,6.07a1.68,1.68,0,0,0,1.59.58,4.26,4.26,0,0,0,1.81-1.33l4.76,4.46Z" transform="translate(-42.12 -44.16)"/><path class="cls-1" d="M103.49,74.3l-4.74,2.89.18.77A1.37,1.37,0,0,0,99.62,79a1.47,1.47,0,0,0,1.4-.27l.85-.52,3.39,5.57-9.35,5.7-3.39-5.58.61-.37c.72-.44,1.12-.88,1.19-1.31a5.49,5.49,0,0,0,0-1.69l-1.54-9.47a2,2,0,0,0-.67-1.35c-.32-.19-.84-.06-1.57.38l-.31.2-3.39-5.57,15.43-9.4,3.39,5.57-.3.18c-.74.46-1.09.87-1.06,1.25a1.82,1.82,0,0,0,.89,1.18l7.71,5.73.76.53a2.18,2.18,0,0,0,.68.31,1.48,1.48,0,0,0,.75,0,3.58,3.58,0,0,0,1-.45l.61-.37L120,74.82l-13.65,8.3L103,77.55l.83-.5c.57-.34.87-.72.89-1.13a1.32,1.32,0,0,0-.6-1.1Zm-5.4.08,3.2-1.95L97,68.74l-.12.07Z" transform="translate(-42.12 -44.16)"/><path class="cls-1" d="M155.07,70.12l0-6.52a3.37,3.37,0,0,0,2-.43,2,2,0,0,0,.48-1.55l-.05-10.09-5.92,18.6-6.77,0-6.2-17.57,0,9.31a3.69,3.69,0,0,0,.11.93,1,1,0,0,0,.38.53,1.6,1.6,0,0,0,.78.24,11.13,11.13,0,0,0,1.26,0l0,6.52-11.38,0,0-6.52a4.39,4.39,0,0,0,2.22-.42,1.71,1.71,0,0,0,.66-1.56l0-8.89a1.7,1.7,0,0,0-.68-1.57,4.36,4.36,0,0,0-2.21-.41l0-6.52,16.74-.07,4.1,12.12L154,44.23l16.52-.07,0,6.52a4.25,4.25,0,0,0-2.2.42,1.72,1.72,0,0,0-.66,1.58l0,8.89a1.7,1.7,0,0,0,.67,1.55,4.34,4.34,0,0,0,2.21.41l0,6.52Z" transform="translate(-42.12 -44.16)"/><path class="cls-1" d="M186.91,68.64l-5.11-2.2-.52.6a1.39,1.39,0,0,0-.47,1.17c.07.39.41.72,1,1l.92.39-2.57,6-10.06-4.32,2.57-6,.66.28a2.16,2.16,0,0,0,1.76.21,5.47,5.47,0,0,0,1.35-1L183.29,58a2,2,0,0,0,.71-1.33c0-.37-.43-.72-1.22-1.06l-.34-.14,2.58-6,16.6,7.13-2.58,6-.32-.13c-.8-.35-1.34-.39-1.63-.15a1.82,1.82,0,0,0-.44,1.42l-.21,9.59c0,.36,0,.67,0,.93a2.11,2.11,0,0,0,.13.73,1.52,1.52,0,0,0,.46.61,3.88,3.88,0,0,0,.93.53l.66.29-2.58,6L181.38,76.1l2.58-6,.89.38a1.52,1.52,0,0,0,1.43.07,1.3,1.3,0,0,0,.55-1.13Zm-3.2-4.36,3.44,1.48.51-5.65-.12-.06Z" transform="translate(-42.12 -44.16)"/><path class="cls-1" d="M196.1,82.23l4.48-4.74a4.41,4.41,0,0,0,1.9,1.22A1.67,1.67,0,0,0,204,78l6.11-6.46a1.74,1.74,0,0,0,.6-1.61,4.53,4.53,0,0,0-1.33-1.82l4.48-4.74L227.42,76.2a15.7,15.7,0,0,1,2.81,3.36,7.22,7.22,0,0,1,1.05,3,5.24,5.24,0,0,1-.46,2.69,8.73,8.73,0,0,1-1.69,2.44,7.26,7.26,0,0,1-4.27,2.45,5.83,5.83,0,0,1-4.62-1.74l-.15.15a7.47,7.47,0,0,1,1.44,2.13,4.15,4.15,0,0,1,.32,1.94,4.48,4.48,0,0,1-.62,1.83,10.31,10.31,0,0,1-1.43,1.86l-.64.68a1.31,1.31,0,0,0-.36.71.95.95,0,0,0,1,1,1.44,1.44,0,0,0,.68-.41L223.58,95l1.47,1.39L222,99.65a6.75,6.75,0,0,1-1.87,1.44,4.49,4.49,0,0,1-2.17.49,5.75,5.75,0,0,1-2.49-.67,11.9,11.9,0,0,1-2.82-2.06,10.61,10.61,0,0,1-2.13-2.64,5,5,0,0,1-.64-2.31,4.41,4.41,0,0,1,.52-2,7.9,7.9,0,0,1,1.3-1.8l.93-1a13.57,13.57,0,0,0,1.45-1.77,3.25,3.25,0,0,0,.55-1.34,1.66,1.66,0,0,0-.24-1.11,5.55,5.55,0,0,0-.91-1.08l-.31-.29-1.73,1.83a1.6,1.6,0,0,0-.54,1.33,3,3,0,0,0,1.06,1.57L207.46,93Zm19.19-1,1.12,1.06a2.45,2.45,0,0,0,2,.88,3.18,3.18,0,0,0,1.76-1.06,3.31,3.31,0,0,0,1.06-1.92,2.62,2.62,0,0,0-1-1.87L219,77.26Z" transform="translate(-42.12 -44.16)"/><path class="cls-1" d="M253.56,116.73l-9.23,4.59-2.57-5.18c.7-.35,1.3-.67,1.81-1a4.43,4.43,0,0,0,1.13-.87,1.54,1.54,0,0,0,.43-.92,2.25,2.25,0,0,0-.29-1.15l-.48-1L234,116.42a1.7,1.7,0,0,0-1.1,1.29,4.4,4.4,0,0,0,.62,2.17l-5.84,2.9-7.18-14.43,5.84-2.91a4.36,4.36,0,0,0,1.36,1.8,1.68,1.68,0,0,0,1.68-.11L239.74,102l-.48-1a2.22,2.22,0,0,0-.74-.92,1.56,1.56,0,0,0-1-.23,4.79,4.79,0,0,0-1.39.38c-.53.23-1.15.52-1.85.87l-2.58-5.2,9.22-4.58Z" transform="translate(-42.12 -44.16)"/><path class="cls-1" d="M229.72,128.82l6.4-1.23a4.36,4.36,0,0,0,.83,2.1,1.65,1.65,0,0,0,1.65.36l8.74-1.67a1.71,1.71,0,0,0,1.42-.95,4.47,4.47,0,0,0,0-2.26l6.41-1.23,3,15.83L251.78,141a4.37,4.37,0,0,0-.82-2.09,1.72,1.72,0,0,0-1.67-.35l-8.73,1.68a1.7,1.7,0,0,0-1.41.94,4.36,4.36,0,0,0,0,2.24l-6.4,1.23ZM265,139l-6.55-5.3-.81-4.24,6,2.58Z" transform="translate(-42.12 -44.16)"/><path class="cls-1" d="M256.36,179.1l-6.49-.68a2.89,2.89,0,0,0-.29-2.07,2,2,0,0,0-1.42-.63l-17.29-1.81,1.09-10.5,15.24-7.64-6-.63c-.76-.08-1.27.09-1.51.51a5.79,5.79,0,0,0-.54,2.17l-6.49-.67,1.26-12,6.48.67a4.46,4.46,0,0,0,.19,2.25,1.68,1.68,0,0,0,1.47.83l8.85.92a1.7,1.7,0,0,0,1.63-.5,4.38,4.38,0,0,0,.64-2.16l6.49.67-1.43,13.75-14.6,7.31,5.23.55a2,2,0,0,0,1.61-.32,3.38,3.38,0,0,0,.62-2l6.49.68Z" transform="translate(-42.12 -44.16)"/></g><g id="Capa_3" data-name="Capa 3"><path class="cls-2" d="M43.12,167.31A12.07,12.07,0,0,1,43,165.1a11.18,11.18,0,0,1,.24-1.93,9.72,9.72,0,0,1,.44-1.53,9.88,9.88,0,0,1,.48-1.08l-1.25.17-.8-5.74,9.48-1.32.85,6.09a5.76,5.76,0,0,0-1.91.56,3.57,3.57,0,0,0-1.16.94,2.8,2.8,0,0,0-.54,1.22,4.5,4.5,0,0,0,0,1.42,3.64,3.64,0,0,0,.63,1.71,2.94,2.94,0,0,0,1.43,1,7.51,7.51,0,0,0,2.41.38,22,22,0,0,0,3.55-.26,20.13,20.13,0,0,0,3.49-.74,6.77,6.77,0,0,0,2.19-1.09,3.13,3.13,0,0,0,1.09-1.49,4.35,4.35,0,0,0,.13-2,3.84,3.84,0,0,0-.49-1.4,3.47,3.47,0,0,0-1-1.11,4.33,4.33,0,0,0-1.6-.63,6.61,6.61,0,0,0-2.18,0l-.85-6.06a12.5,12.5,0,0,1,4.28.11,9.2,9.2,0,0,1,3.75,1.7,10.66,10.66,0,0,1,2.87,3.43,15.11,15.11,0,0,1,1.63,5.29,18.76,18.76,0,0,1,0,5.45,11.9,11.9,0,0,1-1.8,4.72,11.36,11.36,0,0,1-3.79,3.54,15.7,15.7,0,0,1-6,1.95,15.57,15.57,0,0,1-6.32-.24,12,12,0,0,1-4.62-2.34,11.73,11.73,0,0,1-3-3.82A15.93,15.93,0,0,1,43.12,167.31Z" transform="translate(-42.12 -44.16)"/><path class="cls-2" d="M64.3,132.41a5,5,0,0,0,.1-1.21,1.49,1.49,0,0,0-.32-.84,2,2,0,0,0-.86-.56,8.94,8.94,0,0,0-1.48-.38l1.11-6,9.42,1.73-4.52,24.64-6.41-1.18a4.47,4.47,0,0,0,0-2.25,1.68,1.68,0,0,0-1.41-.94l-8.75-1.61a1.71,1.71,0,0,0-1.67.38,4.33,4.33,0,0,0-.8,2.1l-6.42-1.18,4.52-24.63,9.43,1.72-1.11,6.06a9.25,9.25,0,0,0-1.53-.18,1.9,1.9,0,0,0-1,.22,1.48,1.48,0,0,0-.6.68,4.58,4.58,0,0,0-.35,1.16l-.57,3.11,4.6.85,1-5.52,3.06.56-1,5.52,5,.91Z" transform="translate(-42.12 -44.16)"/><path class="cls-2" d="M62.91,101.3a4.35,4.35,0,0,0-.67,2.14,1.69,1.69,0,0,0,1.07,1.32l9.58,5.12,1.66-3.1a4.19,4.19,0,0,0,.45-1.14,1.31,1.31,0,0,0-.16-1,3.21,3.21,0,0,0-.92-.94,16,16,0,0,0-1.84-1.11L75,97.21l9.4,5-12,22.41-5.75-3.07a4.53,4.53,0,0,0,.68-2.15,1.71,1.71,0,0,0-1.06-1.32l-7.85-4.19a1.7,1.7,0,0,0-1.7-.16,4.53,4.53,0,0,0-1.41,1.76l-5.75-3.07,7.6-14.22Z" transform="translate(-42.12 -44.16)"/><path class="cls-2" d="M85.25,102l-4.77-4.45a4.33,4.33,0,0,0,1.21-1.9A1.66,1.66,0,0,0,81,94.14l-6.5-6.07a1.69,1.69,0,0,0-1.6-.59,4.41,4.41,0,0,0-1.82,1.34l-4.76-4.46,11-11.77L82.1,77a4.36,4.36,0,0,0-1.2,1.89,1.71,1.71,0,0,0,.7,1.56l6.49,6.07a1.68,1.68,0,0,0,1.59.58,4.26,4.26,0,0,0,1.81-1.33l4.76,4.46Z" transform="translate(-42.12 -44.16)"/><path class="cls-2" d="M103.49,74.3l-4.74,2.89.18.77A1.37,1.37,0,0,0,99.62,79a1.47,1.47,0,0,0,1.4-.27l.85-.52,3.39,5.57-9.35,5.7-3.39-5.58.61-.37c.72-.44,1.12-.88,1.19-1.31a5.49,5.49,0,0,0,0-1.69l-1.54-9.47a2,2,0,0,0-.67-1.35c-.32-.19-.84-.06-1.57.38l-.31.2-3.39-5.57,15.43-9.4,3.39,5.57-.3.18c-.74.46-1.09.87-1.06,1.25a1.82,1.82,0,0,0,.89,1.18l7.71,5.73.76.53a2.18,2.18,0,0,0,.68.31,1.48,1.48,0,0,0,.75,0,3.58,3.58,0,0,0,1-.45l.61-.37L120,74.82l-13.65,8.3L103,77.55l.83-.5c.57-.34.87-.72.89-1.13a1.32,1.32,0,0,0-.6-1.1Zm-5.4.08,3.2-1.95L97,68.74l-.12.07Z" transform="translate(-42.12 -44.16)"/><path class="cls-2" d="M155.07,70.12l0-6.52a3.37,3.37,0,0,0,2-.43,2,2,0,0,0,.48-1.55l-.05-10.09-5.92,18.6-6.77,0-6.2-17.57,0,9.31a3.69,3.69,0,0,0,.11.93,1,1,0,0,0,.38.53,1.6,1.6,0,0,0,.78.24,11.13,11.13,0,0,0,1.26,0l0,6.52-11.38,0,0-6.52a4.39,4.39,0,0,0,2.22-.42,1.71,1.71,0,0,0,.66-1.56l0-8.89a1.7,1.7,0,0,0-.68-1.57,4.36,4.36,0,0,0-2.21-.41l0-6.52,16.74-.07,4.1,12.12L154,44.23l16.52-.07,0,6.52a4.25,4.25,0,0,0-2.2.42,1.72,1.72,0,0,0-.66,1.58l0,8.89a1.7,1.7,0,0,0,.67,1.55,4.34,4.34,0,0,0,2.21.41l0,6.52Z" transform="translate(-42.12 -44.16)"/><path class="cls-2" d="M186.91,68.64l-5.11-2.2-.52.6a1.39,1.39,0,0,0-.47,1.17c.07.39.41.72,1,1l.92.39-2.57,6-10.06-4.32,2.57-6,.66.28a2.16,2.16,0,0,0,1.76.21,5.47,5.47,0,0,0,1.35-1L183.29,58a2,2,0,0,0,.71-1.33c0-.37-.43-.72-1.22-1.06l-.34-.14,2.58-6,16.6,7.13-2.58,6-.32-.13c-.8-.35-1.34-.39-1.63-.15a1.82,1.82,0,0,0-.44,1.42l-.21,9.59c0,.36,0,.67,0,.93a2.11,2.11,0,0,0,.13.73,1.52,1.52,0,0,0,.46.61,3.88,3.88,0,0,0,.93.53l.66.29-2.58,6L181.38,76.1l2.58-6,.89.38a1.52,1.52,0,0,0,1.43.07,1.3,1.3,0,0,0,.55-1.13Zm-3.2-4.36,3.44,1.48.51-5.65-.12-.06Z" transform="translate(-42.12 -44.16)"/><path class="cls-2" d="M196.1,82.23l4.48-4.74a4.41,4.41,0,0,0,1.9,1.22A1.67,1.67,0,0,0,204,78l6.11-6.46a1.74,1.74,0,0,0,.6-1.61,4.53,4.53,0,0,0-1.33-1.82l4.48-4.74L227.42,76.2a15.7,15.7,0,0,1,2.81,3.36,7.22,7.22,0,0,1,1.05,3,5.24,5.24,0,0,1-.46,2.69,8.73,8.73,0,0,1-1.69,2.44,7.26,7.26,0,0,1-4.27,2.45,5.83,5.83,0,0,1-4.62-1.74l-.15.15a7.47,7.47,0,0,1,1.44,2.13,4.15,4.15,0,0,1,.32,1.94,4.48,4.48,0,0,1-.62,1.83,10.31,10.31,0,0,1-1.43,1.86l-.64.68a1.31,1.31,0,0,0-.36.71.95.95,0,0,0,1,1,1.44,1.44,0,0,0,.68-.41L223.58,95l1.47,1.39L222,99.65a6.75,6.75,0,0,1-1.87,1.44,4.49,4.49,0,0,1-2.17.49,5.75,5.75,0,0,1-2.49-.67,11.9,11.9,0,0,1-2.82-2.06,10.61,10.61,0,0,1-2.13-2.64,5,5,0,0,1-.64-2.31,4.41,4.41,0,0,1,.52-2,7.9,7.9,0,0,1,1.3-1.8l.93-1a13.57,13.57,0,0,0,1.45-1.77,3.25,3.25,0,0,0,.55-1.34,1.66,1.66,0,0,0-.24-1.11,5.55,5.55,0,0,0-.91-1.08l-.31-.29-1.73,1.83a1.6,1.6,0,0,0-.54,1.33,3,3,0,0,0,1.06,1.57L207.46,93Zm19.19-1,1.12,1.06a2.45,2.45,0,0,0,2,.88,3.18,3.18,0,0,0,1.76-1.06,3.31,3.31,0,0,0,1.06-1.92,2.62,2.62,0,0,0-1-1.87L219,77.26Z" transform="translate(-42.12 -44.16)"/><path class="cls-2" d="M253.56,116.73l-9.23,4.59-2.57-5.18c.7-.35,1.3-.67,1.81-1a4.43,4.43,0,0,0,1.13-.87,1.54,1.54,0,0,0,.43-.92,2.25,2.25,0,0,0-.29-1.15l-.48-1L234,116.42a1.7,1.7,0,0,0-1.1,1.29,4.4,4.4,0,0,0,.62,2.17l-5.84,2.9-7.18-14.43,5.84-2.91a4.36,4.36,0,0,0,1.36,1.8,1.68,1.68,0,0,0,1.68-.11L239.74,102l-.48-1a2.22,2.22,0,0,0-.74-.92,1.56,1.56,0,0,0-1-.23,4.79,4.79,0,0,0-1.39.38c-.53.23-1.15.52-1.85.87l-2.58-5.2,9.22-4.58Z" transform="translate(-42.12 -44.16)"/><path class="cls-2" d="M229.72,128.82l6.4-1.23a4.36,4.36,0,0,0,.83,2.1,1.65,1.65,0,0,0,1.65.36l8.74-1.67a1.71,1.71,0,0,0,1.42-.95,4.47,4.47,0,0,0,0-2.26l6.41-1.23,3,15.83L251.78,141a4.37,4.37,0,0,0-.82-2.09,1.72,1.72,0,0,0-1.67-.35l-8.73,1.68a1.7,1.7,0,0,0-1.41.94,4.36,4.36,0,0,0,0,2.24l-6.4,1.23ZM265,139l-6.55-5.3-.81-4.24,6,2.58Z" transform="translate(-42.12 -44.16)"/><path class="cls-2" d="M256.36,179.1l-6.49-.68a2.89,2.89,0,0,0-.29-2.07,2,2,0,0,0-1.42-.63l-17.29-1.81,1.09-10.5,15.24-7.64-6-.63c-.76-.08-1.27.09-1.51.51a5.79,5.79,0,0,0-.54,2.17l-6.49-.67,1.26-12,6.48.67a4.46,4.46,0,0,0,.19,2.25,1.68,1.68,0,0,0,1.47.83l8.85.92a1.7,1.7,0,0,0,1.63-.5,4.38,4.38,0,0,0,.64-2.16l6.49.67-1.43,13.75-14.6,7.31,5.23.55a2,2,0,0,0,1.61-.32,3.38,3.38,0,0,0,.62-2l6.49.68Z" transform="translate(-42.12 -44.16)"/></g><g id="Capa_2" data-name="Capa 2"><circle class="cls-2" cx="109.01" cy="108.53" r="74.5"/></g></g><g id="Capa_4" data-name="Capa 4"><path class="cls-3" d="M85.1,146.15v-3.8a2.58,2.58,0,0,0,1.29-.24,1,1,0,0,0,.39-.91V136a1,1,0,0,0-.39-.92,2.58,2.58,0,0,0-1.29-.24v-3.8H99.29v5.8H95.7a7,7,0,0,0-.06-1,1.37,1.37,0,0,0-.23-.61.86.86,0,0,0-.45-.29,2.84,2.84,0,0,0-.71-.08H92.83v3H96.1v1.81H92.83v1.58a1.21,1.21,0,0,0,.27.84,1.26,1.26,0,0,0,1,.31h1v3.8Z" transform="translate(-42.12 -44.16)"/><path class="cls-3" d="M107.17,134.85l-.18,2.82h.18a4.82,4.82,0,0,1,1.19-2.45,3,3,0,0,1,2.17-.83,3.3,3.3,0,0,1,1.36.25,2.55,2.55,0,0,1,.92.67,2.64,2.64,0,0,1,.5,1,4.28,4.28,0,0,1,.15,1.13,3.48,3.48,0,0,1-.14,1,2.51,2.51,0,0,1-.46.85,2.45,2.45,0,0,1-.82.61,3,3,0,0,1-1.24.23,2.34,2.34,0,0,1-1.62-.52,1.64,1.64,0,0,1-.59-1.26,2.1,2.1,0,0,1,.08-.61,3,3,0,0,1,.17-.42A1.76,1.76,0,0,0,109,137s0-.07-.07-.07-.3.17-.47.49a3.57,3.57,0,0,0-.25,1.55v2.35a1.24,1.24,0,0,0,.19.78.94.94,0,0,0,.73.23h.62v3.8h-8.63v-3.8h.6a.76.76,0,0,0,.64-.28,1,1,0,0,0,.22-.65v-1.94a.71.71,0,0,0-.28-.66,1.25,1.25,0,0,0-.64-.17h-.54v-3.8Z" transform="translate(-42.12 -44.16)"/><path class="cls-3" d="M114.2,140.48a6.3,6.3,0,0,1,.53-2.65,5,5,0,0,1,1.49-1.9,6.6,6.6,0,0,1,2.33-1.15,12.08,12.08,0,0,1,6.09,0,6.6,6.6,0,0,1,2.33,1.15,5.23,5.23,0,0,1,1.49,1.9,6.87,6.87,0,0,1,0,5.29A5.3,5.3,0,0,1,127,145a6.62,6.62,0,0,1-2.33,1.16,12.08,12.08,0,0,1-6.09,0,6.62,6.62,0,0,1-2.33-1.16,5.1,5.1,0,0,1-1.49-1.92A6.32,6.32,0,0,1,114.2,140.48Zm5.84,0a12.18,12.18,0,0,0,.07,1.46,3.46,3.46,0,0,0,.26,1,1.12,1.12,0,0,0,.47.53,1.76,1.76,0,0,0,1.51,0,1.23,1.23,0,0,0,.47-.53,3.17,3.17,0,0,0,.25-1,12.18,12.18,0,0,0,.07-1.46,6.18,6.18,0,0,0-.32-2.41,1.21,1.21,0,0,0-1.22-.7,1.68,1.68,0,0,0-.76.16,1.09,1.09,0,0,0-.47.52,3.46,3.46,0,0,0-.26,1A12.18,12.18,0,0,0,120,140.48Z" transform="translate(-42.12 -44.16)"/><path class="cls-3" d="M139.81,139.6a1.62,1.62,0,0,0-.1-.64,1,1,0,0,0-.24-.37.73.73,0,0,0-.34-.17,1.47,1.47,0,0,0-.36,0,1.22,1.22,0,0,0-1,.39,1.67,1.67,0,0,0-.33,1.11v1.46a1.24,1.24,0,0,0,.19.78.94.94,0,0,0,.73.23h.56v3.8h-8.57v-3.8h.6a.76.76,0,0,0,.64-.28,1,1,0,0,0,.22-.65v-1.94a.71.71,0,0,0-.28-.66,1.25,1.25,0,0,0-.64-.17h-.54v-3.8h6.09l-.22,2.82h.18a3.5,3.5,0,0,1,1.38-2.43,5.19,5.19,0,0,1,3.15-.85,5.48,5.48,0,0,1,2.28.4,3.58,3.58,0,0,1,1.37,1,3.29,3.29,0,0,1,.66,1.32,5.5,5.5,0,0,1,.18,1.34v2.88a1.24,1.24,0,0,0,.19.78.94.94,0,0,0,.73.23h.56v3.8h-7.1Z" transform="translate(-42.12 -44.16)"/><path class="cls-3" d="M154.81,131.05v3.8h3.07v3.8h-3.07v3.15a2.91,2.91,0,0,0,.19,1.11.77.77,0,0,0,.79.43,1,1,0,0,0,.53-.13.85.85,0,0,0,.31-.34,1.23,1.23,0,0,0,.15-.48,5.41,5.41,0,0,0,0-.59v-1.53H158v1.66a7.76,7.76,0,0,1-.21,1.85,3.7,3.7,0,0,1-.72,1.49,3.31,3.31,0,0,1-1.37,1,5.65,5.65,0,0,1-2.2.37,6.25,6.25,0,0,1-2.34-.36,2.94,2.94,0,0,1-1.32-1,3.41,3.41,0,0,1-.59-1.49,12.06,12.06,0,0,1-.14-1.87v-3.28h-1.61v-3.38a3.16,3.16,0,0,0,1.43-.33,3.39,3.39,0,0,0,1.14-.93,4.48,4.48,0,0,0,.74-1.34,5.09,5.09,0,0,0,.26-1.62Z" transform="translate(-42.12 -44.16)"/><path class="cls-3" d="M159.14,137.75h7.14v4.05h-7.14Z" transform="translate(-42.12 -44.16)"/><path class="cls-3" d="M177.22,142.35a2.84,2.84,0,0,0,.71-.08.81.81,0,0,0,.45-.27,1.12,1.12,0,0,0,.23-.55,5.4,5.4,0,0,0,.06-.89h3.59v5.59H167.65v-3.8a2.58,2.58,0,0,0,1.29-.24,1,1,0,0,0,.39-.91V136a1,1,0,0,0-.39-.92,2.58,2.58,0,0,0-1.29-.24v-3.8h14.61v5.58h-3.59a5.48,5.48,0,0,0-.06-.89,1.12,1.12,0,0,0-.23-.54.94.94,0,0,0-.45-.27,2.84,2.84,0,0,0-.71-.08h-1.84v2.73h3.27v1.81h-3.27v3Z" transform="translate(-42.12 -44.16)"/><path class="cls-3" d="M193.08,139.6a1.62,1.62,0,0,0-.1-.64.86.86,0,0,0-.25-.37.7.7,0,0,0-.33-.17,1.47,1.47,0,0,0-.36,0,1.22,1.22,0,0,0-1,.39,1.67,1.67,0,0,0-.33,1.11v1.46a1.24,1.24,0,0,0,.19.78.94.94,0,0,0,.73.23h.56v3.8h-8.58v-3.8h.61a.76.76,0,0,0,.64-.28,1,1,0,0,0,.22-.65v-1.94a.71.71,0,0,0-.28-.66,1.25,1.25,0,0,0-.64-.17h-.55v-3.8h6.09l-.21,2.82h.17a3.51,3.51,0,0,1,1.39-2.43,5.19,5.19,0,0,1,3.15-.85,5.52,5.52,0,0,1,2.28.4,3.58,3.58,0,0,1,1.37,1,3.29,3.29,0,0,1,.66,1.32,5.5,5.5,0,0,1,.18,1.34v2.88a1.24,1.24,0,0,0,.19.78.92.92,0,0,0,.73.23h.55v3.8h-7.09Z" transform="translate(-42.12 -44.16)"/><path class="cls-3" d="M215.25,131.05v10.46a.82.82,0,0,0,.23.63.92.92,0,0,0,.65.21h.59v3.8h-6.89v-1.87h-.17a2.94,2.94,0,0,1-.48.84,3.14,3.14,0,0,1-.78.71,4,4,0,0,1-1.09.48,5.23,5.23,0,0,1-1.43.18,4.74,4.74,0,0,1-3.81-1.52,6.77,6.77,0,0,1-1.29-4.47,6,6,0,0,1,1.39-4.37,5,5,0,0,1,3.8-1.42,5.83,5.83,0,0,1,1.16.1,6.9,6.9,0,0,1,.93.26,8.4,8.4,0,0,1,.8.36l.76.38v-.36a1.24,1.24,0,0,0-.19-.79.94.94,0,0,0-.73-.23h-.55v-3.38Zm-8.63,9.55a8.74,8.74,0,0,0,.06,1.05,3,3,0,0,0,.23.86,1.3,1.3,0,0,0,.45.57,1.2,1.2,0,0,0,.74.21,1.36,1.36,0,0,0,.76-.2,1.3,1.3,0,0,0,.47-.54,2.71,2.71,0,0,0,.23-.83,8.23,8.23,0,0,0,.06-1v-2.32a2.08,2.08,0,0,0-.69-.42,2.28,2.28,0,0,0-.83-.17,1.15,1.15,0,0,0-.74.23,1.61,1.61,0,0,0-.45.62,3.37,3.37,0,0,0-.23.91A9,9,0,0,0,206.62,140.6Z" transform="translate(-42.12 -44.16)"/><path class="cls-3" d="M85.1,171.35v-3.8a2.58,2.58,0,0,0,1.29-.24,1,1,0,0,0,.39-.91v-5.19a1,1,0,0,0-.39-.92,2.58,2.58,0,0,0-1.29-.24v-3.8H96a10.41,10.41,0,0,1,2.84.39,6.62,6.62,0,0,1,2.44,1.27,6.3,6.3,0,0,1,1.73,2.33,8.79,8.79,0,0,1,.65,3.57,8.91,8.91,0,0,1-.64,3.57,6,6,0,0,1-1.75,2.33A6.78,6.78,0,0,1,98.67,171a12.2,12.2,0,0,1-3.13.39Zm8.69-3.8a4.56,4.56,0,0,0,1.11-.13,2,2,0,0,0,.94-.51,2.79,2.79,0,0,0,.66-1.12,6.2,6.2,0,0,0,.26-2,6.53,6.53,0,0,0-.25-2,2.8,2.8,0,0,0-.64-1.14,1.85,1.85,0,0,0-.94-.53,4.8,4.8,0,0,0-1.14-.13h-1v7.5Z" transform="translate(-42.12 -44.16)"/><path class="cls-3" d="M110.55,166.34a3.23,3.23,0,0,0,.58,2.1,2,2,0,0,0,1.54.58,2.39,2.39,0,0,0,.66-.09,1.93,1.93,0,0,0,.6-.32,1.78,1.78,0,0,0,.48-.59,2.51,2.51,0,0,0,.26-.91h3.73a5.7,5.7,0,0,1-.75,2.21,4.23,4.23,0,0,1-1.41,1.44,5.86,5.86,0,0,1-2,.79,12.56,12.56,0,0,1-2.55.24,9.56,9.56,0,0,1-2.72-.37,6.41,6.41,0,0,1-2.23-1.12,5.12,5.12,0,0,1-1.5-1.9,6.31,6.31,0,0,1-.54-2.72,6.46,6.46,0,0,1,.51-2.65,5.22,5.22,0,0,1,1.44-1.9,6.36,6.36,0,0,1,2.19-1.15,9.5,9.5,0,0,1,2.79-.39,9.34,9.34,0,0,1,3.21.49,5.78,5.78,0,0,1,2.19,1.38,5.2,5.2,0,0,1,1.25,2.12,8.57,8.57,0,0,1,.38,2.76Zm1.52-4a1.19,1.19,0,0,0-1.06.51,3.73,3.73,0,0,0-.46,1.67h3a3.3,3.3,0,0,0-.43-1.59A1.14,1.14,0,0,0,112.07,162.36Z" transform="translate(-42.12 -44.16)"/><path class="cls-3" d="M120.77,164.74a1.75,1.75,0,0,0-.5-.67,1.88,1.88,0,0,0-1.06-.22v-3.8h8.23v3.8a1.33,1.33,0,0,0-.85.19.55.55,0,0,0,0,.59l1.11,3.15h.15l1.17-3.15a.51.51,0,0,0,0-.58,1.23,1.23,0,0,0-.84-.2v-3.8h5.71v3.8a2.1,2.1,0,0,0-1.06.2,1.6,1.6,0,0,0-.51.69l-2.75,6.61h-6Z" transform="translate(-42.12 -44.16)"/><path class="cls-3" d="M140.2,166.34a3.23,3.23,0,0,0,.58,2.1,2,2,0,0,0,1.54.58,2.39,2.39,0,0,0,.66-.09,1.93,1.93,0,0,0,.6-.32,1.78,1.78,0,0,0,.48-.59,2.51,2.51,0,0,0,.26-.91h3.73a5.7,5.7,0,0,1-.75,2.21,4.41,4.41,0,0,1-1.41,1.44,5.86,5.86,0,0,1-2,.79,12.56,12.56,0,0,1-2.55.24,9.56,9.56,0,0,1-2.72-.37,6.41,6.41,0,0,1-2.23-1.12,5.12,5.12,0,0,1-1.5-1.9,6.31,6.31,0,0,1-.55-2.72,6.46,6.46,0,0,1,.52-2.65,5.22,5.22,0,0,1,1.44-1.9,6.36,6.36,0,0,1,2.19-1.15,9.45,9.45,0,0,1,2.79-.39,9.34,9.34,0,0,1,3.21.49,5.78,5.78,0,0,1,2.19,1.38,5.31,5.31,0,0,1,1.25,2.12,8.57,8.57,0,0,1,.38,2.76Zm1.52-4a1.18,1.18,0,0,0-1.06.51,3.6,3.6,0,0,0-.46,1.67h3a3.3,3.3,0,0,0-.43-1.59A1.16,1.16,0,0,0,141.72,162.36Z" transform="translate(-42.12 -44.16)"/><path class="cls-3" d="M156.85,156.25v10.19a1,1,0,0,0,.34.9,1.64,1.64,0,0,0,.86.21h.28v3.8H149.7v-3.8h.4a.94.94,0,0,0,.8-.35,1.15,1.15,0,0,0,.26-.74v-5.25a1,1,0,0,0-.37-.88,1.46,1.46,0,0,0-.87-.28h-.22v-3.8Z" transform="translate(-42.12 -44.16)"/><path class="cls-3" d="M159.06,165.68a6.46,6.46,0,0,1,.52-2.65,5.16,5.16,0,0,1,1.5-1.9,6.6,6.6,0,0,1,2.33-1.15,12.08,12.08,0,0,1,6.09,0,6.69,6.69,0,0,1,2.33,1.15,5.23,5.23,0,0,1,1.49,1.9,6.87,6.87,0,0,1,0,5.29,5.3,5.3,0,0,1-1.49,1.92,6.7,6.7,0,0,1-2.33,1.16,12.08,12.08,0,0,1-6.09,0,6.62,6.62,0,0,1-2.33-1.16,5.22,5.22,0,0,1-1.5-1.92A6.48,6.48,0,0,1,159.06,165.68Zm5.84,0a12.18,12.18,0,0,0,.07,1.46,3.49,3.49,0,0,0,.25,1,1.19,1.19,0,0,0,.48.53,1.51,1.51,0,0,0,.75.17,1.55,1.55,0,0,0,.76-.17,1.23,1.23,0,0,0,.47-.53,3.17,3.17,0,0,0,.25-1,12.18,12.18,0,0,0,.07-1.46,6.38,6.38,0,0,0-.32-2.41,1.22,1.22,0,0,0-1.23-.7,1.63,1.63,0,0,0-.75.16,1.16,1.16,0,0,0-.48.52,3.49,3.49,0,0,0-.25,1A12.18,12.18,0,0,0,164.9,165.68Z" transform="translate(-42.12 -44.16)"/><path class="cls-3" d="M185.65,171.69a8.27,8.27,0,0,1-1.17-.07,5.87,5.87,0,0,1-.93-.19,6.29,6.29,0,0,1-.8-.29l-.76-.35v1a1.24,1.24,0,0,0,.19.78,1,1,0,0,0,.74.23h.61v3.8H174.9v-3.8h.61a.76.76,0,0,0,.64-.28,1,1,0,0,0,.22-.65v-7.19a.71.71,0,0,0-.28-.66,1.31,1.31,0,0,0-.65-.17h-.54v-3.8h6.65v2.1h.17a3.7,3.7,0,0,1,1.35-1.76,4.38,4.38,0,0,1,2.64-.7,4.8,4.8,0,0,1,3.77,1.52,8,8,0,0,1,0,8.95A4.86,4.86,0,0,1,185.65,171.69Zm-.65-5.91a6.85,6.85,0,0,0-.07-1,2.64,2.64,0,0,0-.23-.86,1.4,1.4,0,0,0-.45-.58,1.2,1.2,0,0,0-.74-.21,1.25,1.25,0,0,0-1.22.74,2.78,2.78,0,0,0-.23.84,6.63,6.63,0,0,0-.07,1v2.52a1.21,1.21,0,0,0,.65.43,2.87,2.87,0,0,0,.87.16,1.06,1.06,0,0,0,.74-.26,1.84,1.84,0,0,0,.45-.7,3.45,3.45,0,0,0,.23-1A8,8,0,0,0,185,165.78Z" transform="translate(-42.12 -44.16)"/><path class="cls-3" d="M197.64,166.34a3.23,3.23,0,0,0,.58,2.1,2,2,0,0,0,1.54.58,2.52,2.52,0,0,0,.67-.09,2.18,2.18,0,0,0,.6-.32,1.89,1.89,0,0,0,.47-.59,2.33,2.33,0,0,0,.26-.91h3.74a5.87,5.87,0,0,1-.76,2.21,4.23,4.23,0,0,1-1.41,1.44,5.86,5.86,0,0,1-2,.79,12.42,12.42,0,0,1-2.55.24,9.61,9.61,0,0,1-2.72-.37,6.41,6.41,0,0,1-2.23-1.12,5.12,5.12,0,0,1-1.5-1.9,6.31,6.31,0,0,1-.54-2.72,6.46,6.46,0,0,1,.51-2.65,5.22,5.22,0,0,1,1.44-1.9,6.36,6.36,0,0,1,2.19-1.15,9.5,9.5,0,0,1,2.79-.39,9.34,9.34,0,0,1,3.21.49,5.78,5.78,0,0,1,2.19,1.38,5.2,5.2,0,0,1,1.25,2.12,8.31,8.31,0,0,1,.38,2.76Zm1.52-4a1.19,1.19,0,0,0-1.06.51,3.73,3.73,0,0,0-.46,1.67h3a3.54,3.54,0,0,0-.43-1.59A1.17,1.17,0,0,0,199.16,162.36Z" transform="translate(-42.12 -44.16)"/><path class="cls-3" d="M213.23,160.05l-.17,2.82h.17a4.9,4.9,0,0,1,1.19-2.45,3,3,0,0,1,2.17-.83,3.3,3.3,0,0,1,1.36.25,2.47,2.47,0,0,1,.92.67,2.64,2.64,0,0,1,.5,1,4.28,4.28,0,0,1,.16,1.13,3.15,3.15,0,0,1-.15,1,2.35,2.35,0,0,1-.46.85,2.32,2.32,0,0,1-.82.61,3,3,0,0,1-1.24.23,2.37,2.37,0,0,1-1.62-.52,1.63,1.63,0,0,1-.58-1.26,2,2,0,0,1,.25-1l.11-.24s0-.07-.07-.07-.3.17-.46.5a3.47,3.47,0,0,0-.26,1.54v2.35a1.31,1.31,0,0,0,.19.78,1,1,0,0,0,.74.23h.61v3.8h-8.63v-3.8h.6a.75.75,0,0,0,.64-.28,1,1,0,0,0,.22-.65v-1.94a.71.71,0,0,0-.28-.66,1.25,1.25,0,0,0-.64-.17h-.54v-3.8Z" transform="translate(-42.12 -44.16)"/></g></svg>