<svg id="Capa_1" data-name="Capa 1" xmlns="http://www.w3.org/2000/svg" viewBox="0 0 31.67 31.67"><defs><style>.cls-1{fill:#82517d;}</style></defs><path class="cls-1" d="M16.88.41a2.5,2.5,0,0,0-2.81,0L1.49,9.21A2.5,2.5,0,0,0,.41,11.27v9.44A2.53,2.53,0,0,0,1.54,22.8l12.79,8.45a2.5,2.5,0,0,0,2.75,0l13.05-8.62a2.48,2.48,0,0,0,1.12-2.08V11.27a2.52,2.52,0,0,0-1.12-2.09Zm9.74,10.24L21.8,13.88l-4.52-3.29,0-6.46ZM14,4.13v6.33L9.35,13.7,4.73,10.6ZM3.46,13.72l3,2-3,2.09Zm10.6,13.5L4.73,21,9.39,17.7l4.67,3.13ZM12.29,15.67l3-2.11,3.52,2.31L15.71,18Zm5.06,11.55V20.83l4.47-3L26.62,21ZM28,17.93l-3.16-2.08L28,13.72Z"/></svg>