<?xml version="1.0" encoding="utf-8"?>
<!-- Generator: Adobe Illustrator 24.2.3, SVG Export Plug-In . SVG Version: 6.00 Build 0)  -->
<svg version="1.1" id="Capa_1" xmlns="http://www.w3.org/2000/svg" xmlns:xlink="http://www.w3.org/1999/xlink" x="0px" y="0px"
	 viewBox="0 0 31.7 31.7" style="enable-background:new 0 0 31.7 31.7;" xml:space="preserve">
<style type="text/css">
	.st0{fill:#82517D;}
</style>
<g>
	<path class="st0" d="M16.9,0.4c-0.9-0.6-2-0.6-2.8,0L1.5,9.2c-0.7,0.5-1.1,1.2-1.1,2.1v9.4c0,0.8,0.4,1.6,1.1,2.1l12.8,8.5
		c0.8,0.6,1.9,0.6,2.8,0l13-8.6c0.7-0.5,1.1-1.2,1.1-2.1v-9.3c0-0.8-0.4-1.6-1.1-2.1L16.9,0.4z M26.6,10.6l-4.8,3.2l-4.5-3.3l0-6.5
		L26.6,10.6z M14,4.1v6.3l-4.6,3.2l-4.6-3.1L14,4.1z M3.5,13.7l3,2l-3,2.1V13.7z M14.1,27.2L4.7,21l4.7-3.3l4.7,3.1
		C14.1,20.8,14.1,27.2,14.1,27.2z M12.3,15.7l3-2.1l3.5,2.3L15.7,18L12.3,15.7z M17.4,27.2v-6.4l4.5-3l4.8,3.2L17.4,27.2z M28,17.9
		l-3.2-2.1l3.2-2.1V17.9z"/>
</g>
</svg>
