<svg id="Layer_1" data-name="Layer 1" xmlns="http://www.w3.org/2000/svg" viewBox="0 0 328.38 460"><defs><style>.cls-1{fill:#82517d;}</style></defs><path class="cls-1" d="M0,90.57,30.78,424.08,164.19,460l133.4-35.92L328.38,90.57ZM262.27,198.66l-98.2,42-.23.1h95l-10.86,124.9-83.72,24.43L80.05,365.18l-5.43-62.9h41.63L119,334.86l44.81,11.32,46.61-13.13,3.16-52.49L71.9,280.11v-.06l-.14.06-3.17-39.37L164.07,201l5.57-2.31H65l-5-40.28H266.34ZM117.44,41.57h-29V21.72h29V0H66.76V61.39h50.68V41.57Zm72.35,0L169.54,21.72h20.25V0H139.1V21.72c6.78,6.78,10.32,10,20.12,19.84l-20.12,0V61.39h50.69Zm71.84,0L241.38,21.72h20.25V0H210.94V21.72c6.78,6.78,10.31,10,20.12,19.84l-20.12,0V61.39h50.69V41.57Z"/></svg>