<svg id="Capa_1" data-name="Capa 1" xmlns="http://www.w3.org/2000/svg" viewBox="0 0 16.68 24"><defs><style>.cls-1{fill:#82517d;}</style></defs><path class="cls-1" d="M15.85,9H11.26V0h4.59a4.49,4.49,0,0,1,0,9ZM12.73,7.51h3.12a3,3,0,1,0,0-6H12.73Zm0,1.47H8.15a4.49,4.49,0,0,1,0-9h4.59V9ZM8.15,1.47a3,3,0,0,0,0,6h3.11v-6Zm4.58,15H8.15a4.49,4.49,0,0,1,0-9h4.59v9ZM8.15,9a3,3,0,0,0,0,6h3.11V9Zm0,15a4.49,4.49,0,1,1,0-9h4.58v4.44A4.55,4.55,0,0,1,8.17,24Zm0-7.51a3,3,0,1,0,0,6,3.09,3.09,0,0,0,3.1-3.07v-3Zm7.7,0h-.1a4.49,4.49,0,0,1,0-9h.1a4.49,4.49,0,0,1,0,9ZM15.75,9a3,3,0,0,0,0,6h.1a3,3,0,1,0,0-6Z" transform="translate(-3.66)"/></svg>