<svg id="Capa_1" data-name="Capa 1" xmlns="http://www.w3.org/2000/svg" viewBox="0 0 512 511.99"><defs><style>.cls-1{fill:#82517d;}</style></defs><path class="cls-1" d="M502.34,233.2,278.79,9.66a33,33,0,0,0-46.62,0L185.75,56.08,244.63,115a39.16,39.16,0,0,1,49.59,49.92L351,221.64a39.18,39.18,0,1,1-23.5,22.12l-52.92-52.93V330.11a39.65,39.65,0,0,1,10.38,7.42A39.2,39.2,0,1,1,242.28,329V188.4a38.64,38.64,0,0,1-12.84-8.56A39.23,39.23,0,0,1,221,137l-58-58.06L9.66,232.16a33,33,0,0,0,0,46.64L233.21,502.34a33,33,0,0,0,46.63,0l222.5-222.5A33,33,0,0,0,502.34,233.2Z" transform="translate(0 0)"/></svg>