<svg id="Layer_1" data-name="Layer 1" xmlns="http://www.w3.org/2000/svg" viewBox="0 0 325.89 460"><defs><style>.cls-1{fill:#82517d;}</style></defs><path class="cls-1" d="M0,90.4,29.66,423.05,162.74,460,296.2,423,325.89,90.4Zm264,78.95L262.17,190l-.82,9.17H105.23L109,241H257.64l-1,11-9.58,107.41-.62,6.89L163,389.38h0l-.19.05-83.57-23.2-5.72-64.05h41l2.9,32.53L162.77,347h0l45.5-12.28L213,281.77H71.65l-10-112.42-1-10.95H265ZM30.32,0H51.05V20.48H70V0H90.75V62H70V41.26h-19V62H30.32V0ZM118,20.57H99.77V0H157V20.57H138.75V62H118V20.57ZM166.1,0h21.62L201,21.8,214.3,0h21.63V62H215.28V31.28L201,53.34h-.36L186.39,31.28V62H166.1V0Zm80.15,0H267V41.53h29.15V62H246.25V0Z"/></svg>