<svg id="Capa_1" data-name="Capa 1" xmlns="http://www.w3.org/2000/svg" viewBox="0 0 12 12"><defs><style>.cls-1{fill:#82517d;}</style></defs><path class="cls-1" d="M1,1V13H13V1ZM5.31,9.59h-1V4.25h1Zm3.48,0,0-.61h0a1.36,1.36,0,0,1-1.25.7,1.77,1.77,0,0,1-1.65-2A1.83,1.83,0,0,1,7.55,5.65a1.23,1.23,0,0,1,1.09.5h0V4h1V8.51c0,.39,0,.82,0,1.08Zm-1-3.19c-.62,0-1,.55-1,1.28s.35,1.22,1,1.22a.85.85,0,0,0,.84-.69.92.92,0,0,0,0-.29V7.34a1.07,1.07,0,0,0,0-.25A.85.85,0,0,0,7.79,6.4Z" transform="translate(-1 -1)"/></svg>