<svg id="Capa_1" data-name="Capa 1" xmlns="http://www.w3.org/2000/svg" viewBox="0 0 512 512"><defs><style>.cls-1{fill:#82517d;}</style></defs><path class="cls-1" d="M412.23,385.56c28.06,37.51-46.9,64.77-77.11,10.56l-41.05,23.82,2.51,4.17q23.21,39.06,72.27,45.67c71.48,8.55,118.15-37,92.82-101.76-18-37-65.17-44-92.67-62.27-16.17-9.42-12.81-29.36.18-37.36,10.11-6.23,33.32-7,45.28,17.78l39.28-25.32c-31-55.85-104.24-44.6-126.2-19.22-29.85,35.07-21.31,74.22,5,99.37C352.93,360.56,385,367.2,412.23,385.56ZM226.64,464.63c22.63-9.15,35.9-28.07,39.41-56.2.31-2.85.51-184.6.51-184.6H216.77l-.36,179.78c-1.16,11.64-8.12,20-18.28,21.62-17.35,2.79-28.92-2.26-41-24.83l-40.53,24.51C134,465.75,186.37,480.75,226.64,464.63ZM44.87,0H467.13A44.77,44.77,0,0,1,512,44.87V467.13A44.77,44.77,0,0,1,467.13,512H44.87A44.77,44.77,0,0,1,0,467.13V44.87A44.77,44.77,0,0,1,44.87,0Z" transform="translate(0 0)"/></svg>