<svg id="Layer_2" data-name="Layer 2" xmlns="http://www.w3.org/2000/svg" viewBox="0 0 612 544.56"><defs><style>.cls-1{fill:#82517d;}</style></defs><path id="path4783" class="cls-1" d="M251.42,395.39a54.69,54.69,0,1,1,54.69,54.69A54.72,54.72,0,0,1,251.42,395.39Zm360.58,0C612,433,567.66,471,496.2,494.63q-5.55,1.8-11.44,3.6c1.42,5.55,2.62,11,3.71,16.34,6.64,33.77,7.73,65.14,3,90.63-5,27.13-16.34,46.41-32.68,55.89-8.17,4.79-17.87,7.19-28.65,7.19-29.63,0-67.22-17.87-106.43-51.64-5.56-4.79-11-9.8-16.56-15.14q-6.37,6.21-12.75,11.77c-25.92,22.65-52.61,39.21-77,47.82C204.69,665.66,192.71,668,182,668c-11.11,0-20.91-2.4-29.19-7.19-31.27-18.08-42.16-70.15-29-139.33,1.31-7.08,2.94-14.38,4.79-21.78Q120,497.19,112,494.42c-32.58-11.11-60.25-25.93-80-42.82C11.11,433.74,0,414.24,0,395.39c0-36.16,39.65-71.57,106.21-94.66,7.3-2.51,14.93-4.9,22.77-7.19q-2.61-10.29-4.58-20.26c-6.42-32.9-7.62-63.08-3.48-87.37,4.57-26.47,15.36-45.32,31.37-54.58,32.46-18.84,87.7.55,143.91,50.55,3.37,3.05,6.75,6.21,10.24,9.48,5.12-4.9,10.24-9.59,15.25-14.05,25.27-22,50.87-38.13,74-46.63,25.17-9.26,47-9.26,62.86-.11,32.57,18.74,43.36,76.26,28.11,149.9-.88,4.46-2,8.93-3.06,13.51q10.14,2.94,19.61,6.2c31.7,10.9,58.39,25.06,77.35,40.75C601.11,358.14,612,377,612,395.39ZM324.74,210a600.26,600.26,0,0,1,51.63,64.49,628.59,628.59,0,0,1,81.92,13c1-4.14,2-8.17,2.73-12.2,14.27-69.39,2-111.88-15.58-122-8.94-5.12-23.42-4.47-40.85,2-20.16,7.41-42.92,21.9-65.8,41.83-4.68,4-9.37,8.39-14.05,13ZM161,480.8a535.56,535.56,0,0,0,56.32,9c-6.54-10.24-13-20.7-19.18-31.37-6.1-10.46-11.87-21-17.32-31.59A563.53,563.53,0,0,0,161,480.8Zm37.14-147.17c6.1-10.46,12.31-20.81,18.74-30.83-19.39,2.4-38,5.66-55.56,9.48,5.34,17.21,11.88,35,19.5,53.05q8.17-15.85,17.32-31.7ZM220.81,445.4c9.48,16.34,19.5,32.24,30,47.38,17.76,1.09,36.28,1.75,55.34,1.75s37.91-.66,56-2q14.86-22.38,29.41-47.38c9.59-16.56,18.41-33.23,26.37-49.57-8-16-16.67-32.35-26.37-49C382,330.14,372.12,314.45,362,299.42c-18.19-1.41-36.93-2.07-55.88-2.07-18.74,0-37.47.76-55.78,2.18-10.24,15-20.26,30.83-29.63,47.17s-18.08,32.79-26,49.35c8,16.45,16.67,33,26.14,49.35Zm174.63,44a556.62,556.62,0,0,0,57.08-9.7,538.25,538.25,0,0,0-20.59-53.92c-5.56,10.78-11.55,21.68-17.76,32.46S401.75,479.38,395.44,489.41ZM451.21,312.6c-17.65-4-36.38-7.3-55.88-9.8,6.32,9.91,12.52,20.15,18.63,30.61,6.2,10.78,12.09,21.46,17.64,31.92a545.39,545.39,0,0,0,19.61-52.73ZM270.05,272.08c11.88-.55,23.86-.87,35.95-.87,12.31,0,24.4.32,36.49.87a557.84,557.84,0,0,0-36.05-43.47,552.06,552.06,0,0,0-36.39,43.47Zm-119.94-3.81c1.2,6.21,2.62,12.41,4.25,18.84a643.75,643.75,0,0,1,81.81-12.74,643,643,0,0,1,52.07-64.49c-3.05-2.94-6.1-5.78-9.15-8.39C225.93,154.43,183,143.86,165.47,154c-8.93,5.12-15.57,18.09-18.73,36.39-3.6,21.13-2.51,48.15,3.37,77.89ZM165.8,396.16A628.07,628.07,0,0,1,136,318.81c-7.3,2.07-14.27,4.25-21,6.65-61.22,21.35-88.68,50.54-88.68,70,0,20.27,29.53,52.18,94.23,74.3,4.9,1.63,9.92,3.27,15.14,4.79A620.66,620.66,0,0,1,165.8,396.16ZM288.9,582.87A613.36,613.36,0,0,1,236.39,518,599.66,599.66,0,0,1,154,506c-1.74,7-3.15,13.73-4.46,20.27C137.48,590,149.13,628.3,165.91,638c17.54,10.13,59.91.55,111.44-44.55C281.05,590.17,285,586.58,288.9,582.87ZM343,519.8c-12.09.54-24.51.87-36.93.87-12.2,0-24.08-.22-35.73-.65q18.14,23.85,36.82,44A544.93,544.93,0,0,0,343,519.8ZM463,519.69c-1-4.9-2.07-9.8-3.38-14.92a600.49,600.49,0,0,1-82.79,12.74,612.31,612.31,0,0,1-51.31,65.14c5.12,5,10.35,9.7,15.36,14.06C390,639,429,648.12,445.87,638.32,463.41,628.3,476.27,586.79,463,519.69Zm123-124.3c0-10.34-7.84-22.55-22.11-34.42-16.45-13.73-40.41-26.25-69.06-36.17-5.89-2-12-3.92-18.2-5.77a604.05,604.05,0,0,1-29.85,76.47c12.86,27.13,23.32,53.16,30.94,77.46,3.49-1.09,7-2.18,10.35-3.27,67.21-22.22,97.93-54.14,97.93-74.3Z" transform="translate(0 -123.72)"/></svg>