<svg id="Layer_1" data-name="Layer 1" xmlns="http://www.w3.org/2000/svg" viewBox="0 0 228 228"><defs><style>.cls-1{fill:#82517d;}</style></defs><path class="cls-1" d="M108.15,139.22a38.65,38.65,0,0,0-6.08,11.13c-2.74,8.32-1.56,16.78.39,17.29,2.27.59,6-10.53,7.79-14.87,1.12-2.73,5.47-14.82,4.52-16.43C114,135.07,110.94,136.09,108.15,139.22Z" transform="translate(-14 -14)"/><path class="cls-1" d="M77.46,156.87h0l-.35.19L74,159a81.55,81.55,0,0,0-12.05,9c-6.28,5.92-7.6,14.15-4.28,16.07,3.06,1.77,10.21-.34,15.33-5.92a22.21,22.21,0,0,0,5.31-21.73Z" transform="translate(-14 -14)"/><path class="cls-1" d="M145,161.22c-1.51,1.89-5.37,6-5.37,6s-.55.52-.31.66,1-.06,1.77-.45c2.14-1.35,6.94-4.7,6.95-9.67,0-.15,0-.29,0-.43C146.88,158.82,145.86,160.13,145,161.22Z" transform="translate(-14 -14)"/><path class="cls-1" d="M226,14H30A16,16,0,0,0,14,30V226a16,16,0,0,0,16,16H226a16,16,0,0,0,16-16V30A16,16,0,0,0,226,14Zm-9.16,143.73c-.29,7.46-7.14,10.53-8.41,10.74-.92.16-1.42.19-1.55-.54-.1-.5.23-.73,1.32-1.4a10.2,10.2,0,0,0,4.9-6.93c.58-4-2.45-13.69-17.9-15.49-7.21-.84-12.86.17-17.23,2a20.56,20.56,0,0,1,1.5,6.49c.2,4.85-3.14,8.43-6.62,11a21.88,21.88,0,0,1-6,3.09c-1.45.61-3.38,1.24-4.74,1-3-.61-4.62-3.28-2.57-9.19,1.11-3.19,4.3-8.05,9.46-12.24a49.39,49.39,0,0,1-3.15-7.14,58.44,58.44,0,0,1-1.72-7.17,148,148,0,0,1-9.73,16.82l-1,1.38a22.26,22.26,0,0,1,2,7.81A12.52,12.52,0,0,1,150.12,169a22.15,22.15,0,0,1-5.62,3,19.74,19.74,0,0,1-6.53,1.48c-1.74.12-3.42,0-4.36-.7-1.29-1-1.44-2.17-.78-3.81.57-1.39,4.79-6.21,8.33-10.44,1-1.16,1.91-2.35,2.75-3.46a.06.06,0,0,1,0,0s.64-.83,1.68-2.27c-1.29-2.79-2.93-5.69-3.71-8.32a59,59,0,0,1-1.71-7.16s-4.31,11-8.8,19.85c-3.47,6.83-5.79,11-6.83,12.78l0,.07s-.15.26-.42.68l-.2.33v0c-1.16,1.72-3.78,5.09-6.38,5.09-7.13,0-4.51-14.48-4.51-14.48s-2.09,5.36-4.44,10c-1.92,3.75-3.66,6.93-7.47,6.93a5.81,5.81,0,0,1-4.29-1.4c-3.28-3.11-5.78-11-5.29-17.13A43.84,43.84,0,0,1,93.81,148c-2,1.07-4.22,2.33-6.52,3.68l-3.54,2.09a2.12,2.12,0,0,0,.11.21c2.93,5.66,3.71,18.07-2.68,27.6S62.9,196.93,51.31,193.71c-3.74-1-9.38-8.77-4.51-19.55,4.29-9.49,21.47-18.48,26-20.72l1.25-.69c-9-7.89-31.56-18.53-34.71-34.88-.89-4.6,1.26-15.61,14.79-28.26C65.49,79,81.31,70.82,95.93,65.63c24.55-8.72,50.5-3.58,54.49,12.07,3.92,15.38-9.43,33.79-26.54,40.41-15.27,5.9-27.9,5-33.09,3.27-5.9-1.94-9.36-5.83-10.2-8-.33-.86-.9-2.31,0-2.81.55-.3.78-.23,2.26,1.41s7.07,5.72,17.83,4.51c28.23-3.16,45.24-25.1,39.86-36.9-3.76-8.27-25.52-12-52.71,1.55-33.19,16.54-35,30.17-35.27,35.35-.78,14.24,17.58,21.74,27.51,32.33l.38.42,5.75-3.16c5-2.75,9.72-5.33,11.93-6.53,3.49-5.08,10.59-10.68,15.71-10.68,8.18,0,5.37,11.76,5.37,11.76s.16-.54.39-.55a3.23,3.23,0,0,1,3.66-.62c2.6.95,2,2.77,2,3,0,.36-3.07,10.81-4.36,17.52-.61,3.2-.26,5.53-.08,5.53s.78-.82,1.26-1.69v0s.36-.66,1-1.85c.07-.16.12-.25.12-.25h0c.71-1.4,1.72-3.45,2.88-6,2.27-5,10.94-24.34,11.68-26.48s1.12-4.35,1.48-5.29,3.42-1.66,7-1.64,3.95,1.56,4,1.87-1.7,4.56-2.1,7.56a22.49,22.49,0,0,0,.31,7,21.92,21.92,0,0,0,2.46,6.1c3.71-6.06,10.23-17.64,10.86-20.89a35.25,35.25,0,0,1,1.48-5.29c.36-1,3.42-1.66,7-1.64s4,1.55,4,1.87-1.7,4.56-2.1,7.55a22.54,22.54,0,0,0,.31,7c.28,2.15,2,5,3.6,8.34a36.68,36.68,0,0,1,16.1-3.75C208.15,137.87,217.21,148.27,216.84,157.73Z" transform="translate(-14 -14)"/><path class="cls-1" d="M166.18,156.32c-1.85,4-2,5.33-1.38,5.74,2.69-1,7.15-3.31,7.19-9.56a9.83,9.83,0,0,0-.53-3A21.62,21.62,0,0,0,166.18,156.32Z" transform="translate(-14 -14)"/></svg>