<svg id="Capa_1" data-name="Capa 1" xmlns="http://www.w3.org/2000/svg" viewBox="0 0 448 448"><defs><style>.cls-1{fill:#82517d;}</style></defs><path class="cls-1" d="M400,0H48A48,48,0,0,0,0,48V400a48,48,0,0,0,48,48H400a48,48,0,0,0,48-48V48A48,48,0,0,0,400,0ZM351.1,158.8c.2,2.8.2,5.7.2,8.5,0,86.7-66,186.6-186.6,186.6A185.74,185.74,0,0,1,64,324.5a138.17,138.17,0,0,0,15.8.8,131.49,131.49,0,0,0,81.4-28,65.67,65.67,0,0,1-61.3-45.5c10.1,1.5,19.2,1.5,29.6-1.2A65.59,65.59,0,0,1,77,186.2v-.8a65.54,65.54,0,0,0,29.6,8.3,65.58,65.58,0,0,1-29.2-54.6A64.77,64.77,0,0,1,86.3,106a186.22,186.22,0,0,0,135.2,68.6c-9.3-44.5,24-80.6,64-80.6a65.35,65.35,0,0,1,47.9,20.7A128.52,128.52,0,0,0,375,98.9,65.41,65.41,0,0,1,346.2,135,130.52,130.52,0,0,0,384,124.8,138,138,0,0,1,351.1,158.8Z"/></svg>